<svg viewBox="0 0 20 21" xmlns="http://www.w3.org/2000/svg">
  <path d="M19.696 19.128l-4.93-5.199a8.521 8.521 0 0 0 1.962-5.45C16.728 3.804 12.976 0 8.364 0 3.752 0 0 3.804 0 8.479c0 4.675 3.752 8.478 8.364 8.478 1.731 0 3.381-.529 4.792-1.534l4.967 5.238c.208.218.487.339.787.339.283 0 .552-.11.756-.309a1.118 1.118 0 0 0 .03-1.563zM8.364 2.212c3.409 0 6.182 2.811 6.182 6.267 0 3.455-2.773 6.267-6.182 6.267-3.409 0-6.182-2.812-6.182-6.267 0-3.456 2.773-6.267 6.182-6.267z" fill="#FFF" fill-rule="nonzero"/>
</svg>