<svg xmlns="http://www.w3.org/2000/svg" viewBox="0 0 59 59">
  <path d="M41.9 41.9c-.5.5-1 1.1-1.4 1.7L19.3 33.1c.5-1.1.7-2.4.7-3.7s-.3-2.5-.7-3.7l21.3-10.4c1.8 2.8 4.9 4.6 8.4 4.6 5.5 0 10-4.5 10-10S54.5 0 49 0 39 4.5 39 10c0 1.3.2 2.5.7 3.6L18.4 24c-1.8-2.7-4.9-4.5-8.4-4.5-5.5 0-10 4.5-10 10s4.5 10 10 10c3.5 0 6.6-1.8 8.4-4.5l21.3 10.5c-.5 1.1-.7 2.3-.7 3.5 0 2.7 1 5.2 2.9 7.1 2 1.9 4.5 2.9 7.1 2.9 2.6 0 5.1-1 7.1-2.9C58 54.2 59 51.7 59 49s-1-5.2-2.9-7.1c-3.9-3.9-10.3-3.9-14.2 0zM49 2c4.4 0 8 3.6 8 8s-3.6 8-8 8-8-3.6-8-8 3.6-8 8-8zM10 37.5c-4.4 0-8-3.6-8-8s3.6-8 8-8 8 3.6 8 8-3.6 8-8 8zm44.7 17.2c-3.1 3.1-8.2 3.1-11.3 0-1.6-1.6-2.4-3.6-2.4-5.7s.8-4.1 2.3-5.7c1.6-1.6 3.6-2.3 5.7-2.3 2 0 4.1.8 5.7 2.3 1.5 1.5 2.3 3.5 2.3 5.7s-.8 4.1-2.3 5.7z" fill="#fff"/>
</svg>